<?xml version="1.0" standalone="no"?>
<!DOCTYPE svg PUBLIC "-//W3C//DTD SVG 20010904//EN"
 "http://www.w3.org/TR/2001/REC-SVG-20010904/DTD/svg10.dtd">
<svg version="1.0" xmlns="http://www.w3.org/2000/svg"
 width="919.000000pt" height="919.000000pt" viewBox="0 0 919.000000 919.000000"
 preserveAspectRatio="xMidYMid meet">
<metadata>
Created by potrace 1.14, written by Peter Selinger 2001-2017
</metadata>
<g transform="translate(0.000000,919.000000) scale(0.100000,-0.100000)"
fill="#000000" stroke="none">
<path d="M4577 8504 c-2 -2 -31 -11 -63 -20 -32 -8 -108 -29 -169 -44 -60 -16
-211 -57 -335 -90 -124 -33 -232 -62 -240 -64 -8 -2 -85 -23 -170 -46 -85 -22
-164 -43 -175 -45 -11 -3 -103 -27 -205 -55 -208 -56 -185 -58 -280 29 -30 28
-64 51 -75 52 -11 0 -33 2 -50 4 -16 1 -70 6 -120 9 -49 4 -101 9 -115 11 -14
2 -59 7 -100 10 -41 3 -95 8 -120 10 -25 2 -79 7 -120 10 -76 6 -133 11 -225
20 -27 3 -81 7 -120 10 -38 3 -81 7 -95 10 -14 2 -67 7 -117 10 -51 3 -108 7
-125 9 -18 3 -64 7 -103 11 -38 3 -88 7 -110 9 -22 2 -76 7 -120 10 -79 7
-146 13 -235 21 -25 3 -76 7 -115 10 -38 3 -90 8 -115 10 -25 3 -126 11 -225
20 -99 8 -202 17 -230 20 -121 13 -155 14 -155 6 0 -5 8 -11 18 -14 9 -4 35
-17 57 -30 22 -14 229 -134 460 -267 231 -133 457 -264 503 -291 45 -27 85
-49 88 -49 3 0 25 -13 49 -30 24 -16 46 -30 49 -30 3 0 38 -19 78 -43 40 -24
80 -46 88 -50 8 -4 32 -18 53 -31 l39 -23 -89 -59 c-48 -32 -205 -135 -348
-229 -143 -94 -325 -214 -405 -267 -80 -52 -264 -173 -410 -269 -146 -96 -289
-190 -317 -209 -29 -18 -53 -35 -53 -38 0 -4 606 4 1033 13 l188 4 -29 -52
c-17 -29 -96 -168 -176 -310 -81 -141 -156 -274 -167 -295 -22 -38 -90 -159
-126 -222 -11 -19 -44 -75 -72 -123 -28 -49 -51 -90 -51 -93 0 -2 -14 -27 -31
-55 -28 -45 -31 -56 -26 -102 3 -29 8 -62 11 -73 2 -12 7 -39 10 -60 4 -22 13
-75 21 -119 8 -44 17 -96 20 -115 3 -19 12 -71 20 -115 8 -44 30 -172 50 -285
19 -113 37 -214 39 -225 2 -11 11 -63 20 -115 9 -52 18 -106 21 -120 2 -14 9
-54 15 -90 6 -36 13 -76 16 -90 2 -14 17 -101 34 -195 16 -93 39 -224 50 -290
12 -66 23 -131 25 -145 3 -22 87 -503 116 -670 l12 -65 259 -220 c143 -121
267 -227 276 -235 9 -8 44 -38 77 -65 33 -28 62 -52 65 -55 3 -3 34 -30 70
-60 36 -30 70 -59 76 -65 6 -5 35 -30 65 -55 54 -46 105 -89 194 -165 41 -36
188 -161 525 -447 229 -195 480 -410 509 -435 32 -29 81 -45 81 -25 0 4 -67
75 -148 158 -81 84 -271 279 -422 435 -316 325 -357 367 -680 699 -131 135
-241 248 -245 251 -6 7 -9 20 -20 94 -3 22 -7 47 -10 55 -2 8 -6 38 -10 65 -3
28 -12 86 -20 130 -7 44 -16 100 -20 125 -3 25 -8 56 -11 70 -2 14 -6 39 -8
55 -4 26 -10 66 -31 195 -2 14 -11 66 -19 115 -19 114 -24 144 -36 230 -6 39
-15 95 -20 125 -14 82 -19 111 -25 155 -3 22 -8 51 -10 65 -5 30 -8 46 -35
215 -11 72 -29 186 -40 255 -51 316 -62 389 -71 445 -5 33 -11 71 -14 85 -3
14 -8 46 -11 72 l-5 47 171 203 c94 112 179 212 188 223 9 11 53 63 98 115 44
52 89 106 100 119 10 13 24 28 29 35 6 6 46 54 90 106 44 52 90 106 102 120
22 26 188 222 236 279 l28 33 92 -21 c51 -12 137 -33 192 -46 150 -36 313 -74
338 -79 12 -2 41 -9 63 -15 23 -6 64 -16 90 -22 61 -12 82 -17 274 -63 85 -21
162 -39 170 -41 8 -2 114 -26 235 -55 121 -28 227 -53 235 -55 8 -2 132 -31
275 -65 143 -34 271 -60 285 -57 14 2 77 16 140 31 63 16 122 29 130 31 8 2
47 11 85 20 39 9 77 18 85 20 8 2 35 8 60 15 25 7 56 14 70 17 14 2 187 43
385 89 198 47 367 87 375 89 8 2 83 19 165 38 83 20 161 38 175 41 14 3 70 16
125 29 55 14 127 31 160 38 33 7 62 13 65 14 3 0 14 4 25 8 11 3 31 8 45 11
14 2 47 10 74 17 55 14 39 25 136 -91 50 -59 445 -528 473 -560 31 -36 179
-211 199 -235 45 -55 255 -302 270 -318 10 -12 15 -29 12 -45 -3 -15 -9 -54
-15 -87 -6 -33 -13 -73 -15 -90 -5 -40 -12 -89 -24 -155 -5 -30 -12 -75 -16
-100 -3 -25 -8 -54 -10 -65 -1 -11 -5 -36 -8 -55 -4 -19 -8 -48 -10 -65 -8
-58 -17 -110 -26 -160 -5 -27 -12 -68 -15 -90 -2 -22 -7 -51 -10 -65 -3 -14
-8 -45 -10 -70 -3 -25 -8 -52 -10 -60 -2 -8 -7 -33 -10 -55 -3 -23 -7 -50 -9
-62 -3 -12 -8 -43 -12 -70 -3 -26 -8 -57 -10 -68 -6 -33 -13 -78 -19 -120 -5
-36 -12 -80 -30 -180 -2 -16 -7 -50 -11 -75 -3 -25 -7 -52 -9 -60 -3 -8 -11
-62 -20 -120 -8 -58 -17 -116 -20 -130 -6 -29 -14 -84 -20 -136 -3 -22 -7 -46
-10 -54 -2 -8 -7 -35 -10 -60 -4 -25 -13 -81 -20 -125 -7 -44 -16 -103 -20
-132 -7 -58 32 -13 -470 -528 -143 -147 -291 -299 -329 -339 -171 -177 -626
-643 -670 -687 -28 -27 -47 -51 -43 -55 12 -12 53 5 92 38 21 18 105 89 185
158 81 69 168 143 195 165 26 22 53 45 59 50 6 6 88 75 181 155 94 79 181 154
195 167 14 12 77 66 140 119 63 54 120 102 126 108 7 6 31 27 54 45 23 19 48
40 54 46 6 6 90 77 186 159 253 214 272 230 405 344 66 57 129 111 140 120 31
26 148 125 168 143 10 9 20 29 23 45 3 16 13 76 24 134 11 58 24 134 30 170 5
36 12 76 14 90 3 14 10 52 15 85 6 33 13 69 15 80 5 27 18 105 22 130 3 18 28
161 40 225 2 14 7 41 10 60 2 19 9 58 14 85 5 28 12 66 16 85 3 19 18 109 34
200 16 91 32 181 35 200 3 19 15 87 26 150 22 125 25 141 36 209 4 25 8 48 8
51 3 10 15 75 20 105 3 17 10 57 15 90 13 80 19 110 30 170 5 28 12 68 15 90
14 86 17 103 35 200 34 183 34 170 -6 239 -19 33 -40 70 -47 81 -6 11 -41 73
-79 138 -37 66 -68 121 -68 123 0 2 -18 33 -40 69 -22 36 -40 67 -40 69 0 3
-19 37 -43 78 -24 40 -57 98 -74 128 -16 30 -77 138 -136 240 -58 102 -109
193 -112 202 -6 15 8 16 167 13 95 -2 366 -7 603 -10 236 -4 433 -9 437 -11 4
-3 8 -2 8 1 0 5 -198 137 -705 470 -82 54 -280 185 -440 290 -159 105 -332
218 -382 251 -51 32 -91 63 -90 68 2 5 19 18 38 28 90 50 107 60 144 83 22 14
47 28 55 32 8 4 51 28 95 54 145 84 392 227 580 334 22 13 81 47 130 75 50 29
120 70 157 91 37 21 82 47 100 58 18 10 69 40 113 65 l80 47 -55 -5 c-30 -3
-84 -8 -120 -11 -36 -3 -89 -8 -119 -11 -52 -5 -76 -7 -226 -19 -38 -3 -90 -8
-115 -10 -25 -3 -79 -7 -120 -10 -41 -3 -91 -7 -110 -10 -19 -2 -66 -7 -105
-10 -38 -3 -92 -8 -120 -10 -27 -3 -79 -7 -115 -10 -36 -3 -85 -7 -110 -9 -25
-3 -76 -8 -115 -11 -38 -3 -88 -8 -110 -10 -22 -2 -76 -7 -120 -10 -43 -3 -93
-8 -110 -10 -16 -2 -68 -7 -115 -10 -47 -3 -98 -8 -115 -10 -16 -2 -66 -7
-110 -11 -90 -8 -92 -8 -229 -18 -55 -5 -107 -9 -116 -11 -8 -2 -58 -6 -110
-9 -52 -4 -104 -9 -115 -11 -11 -2 -33 -4 -48 -4 -15 -1 -38 -11 -51 -23 -12
-13 -46 -42 -73 -65 l-51 -43 -79 21 c-43 12 -85 23 -93 25 -8 2 -51 13 -95
25 -44 11 -87 23 -95 24 -8 2 -276 74 -595 160 -658 177 -612 165 -618 159z"/>
<path d="M3809 2507 l-340 -340 29 -31 c15 -17 64 -71 108 -121 43 -49 81 -92
84 -95 3 -3 59 -66 125 -140 66 -74 125 -140 130 -146 63 -70 185 -207 395
-443 l253 -284 20 24 c17 21 60 70 207 234 25 27 47 52 50 55 3 3 57 63 120
135 63 71 131 147 150 169 64 70 75 82 135 151 33 38 69 78 80 89 11 12 52 57
90 101 39 44 75 85 80 91 100 110 163 181 174 197 13 18 -9 42 -324 357 l-337
337 -444 0 -445 0 -340 -340z"/>
</g>
</svg>
