<svg fill="none" height="201" viewBox="0 0 1073 201" width="1073" xmlns="http://www.w3.org/2000/svg"><g fill="#161819"><path d="m601.598 194.742h42.769v-97.2828c0-15.3082 2.162-27.1108 6.486-35.4076 4.44-8.4137 10.049-14.1982 16.827-17.3533 6.895-3.272 13.906-4.908 21.034-4.908 10.05 0 18.055 2.2203 24.014 6.6609 5.96 4.3237 10.342 9.8744 13.147 16.6521 2.921 6.6608 4.791 13.6139 5.609 20.859.935 7.2451 1.402 13.7891 1.402 19.6317v91.148h42.77v-105.6965c0-4.4405-.409-10.3419-1.227-17.7038-.702-7.362-2.338-15.133-4.908-23.313-2.571-8.1799-6.544-15.8926-11.92-23.1377-5.375-7.362-12.679-13.3221-21.91-17.87953-9.115-4.67425-20.626-7.01147-34.532-7.01147-13.672 0-25.708 2.39565-36.108 7.18677-10.284 4.67423-18.873 11.10173-25.767 19.28173v-21.0346h-37.686z"/><path d="m900.875 200.001c18.23 0 34.882-4.674 49.956-14.022 15.191-9.466 26.41-22.787 33.655-39.965l-41.718-12.621c-8.414 17.996-23.196 26.994-44.347 26.994-14.373 0-25.708-4.148-34.005-12.445-8.297-8.414-13.263-20.45-14.899-36.109h137.072c1.636-22.787-.876-42.5358-7.537-59.2463s-16.886-29.6239-30.675-38.7387c-13.672-9.11478-30.324-13.672219-49.956-13.672219-18.58 0-34.94 4.206879-49.08 12.620519-14.139 8.2968-25.182 20.1-33.129 35.4082-7.946 15.3082-11.919 33.3043-11.919 53.9875 0 19.165 4.032 36.109 12.095 50.833 8.18 14.724 19.515 26.234 34.005 34.531s31.317 12.445 50.482 12.445zm-.701-162.8396c13.088 0 23.137 3.4474 30.149 10.342 7.128 6.7776 11.627 17.587 13.497 32.4278h-93.252c5.025-28.513 21.56-42.7698 49.606-42.7698z"/><path d="m201.836 194.796h161.788v-36.985h-95.706l99.913-146.363v-5.95972h-155.829v36.98512h90.097l-100.263 146.5376z"/><path d="m201.836 194.796h161.788v-36.985h-95.706l99.913-146.363v-5.95972h-155.829v36.98512h90.097l-100.263 146.5376z"/><path d="m201.836 194.796h161.788v-36.985h-95.706l99.913-146.363v-5.95972h-155.829v36.98512h90.097l-100.263 146.5376z"/><circle cx="1045.48" cy="168.234" r="26.5583"/><path d="m199 100.555c0 54.952-44.548 99.5-99.5 99.5-54.9523 0-99.5-44.548-99.5-99.5 0-54.9526 44.5477-99.50031 99.5-99.50031 54.952 0 99.5 44.54771 99.5 99.50031zm-155.22 0c0 30.773 24.9467 55.72 55.72 55.72 30.773 0 55.72-24.947 55.72-55.72 0-30.7736-24.947-55.7203-55.72-55.7203-30.7733 0-55.72 24.9467-55.72 55.7203z"/><path d="m578 100.555c0 54.952-44.548 99.5-99.5 99.5s-99.5-44.548-99.5-99.5c0-54.9526 44.548-99.50031 99.5-99.50031s99.5 44.54771 99.5 99.50031zm-155.22 0c0 30.773 24.947 55.72 55.72 55.72s55.72-24.947 55.72-55.72c0-30.7736-24.947-55.7203-55.72-55.7203s-55.72 24.9467-55.72 55.7203z"/></g></svg>